REM MD5 102069bae3cb8e6bca2252537250e511
FILE "PlayStation Underground Jampack - Summer 2K (USA).bin" BINARY
  TRACK 01 MODE2/2352
    INDEX 01 00:00:00
  TRACK 02 AUDIO
    INDEX 00 60:00:53
    INDEX 01 60:02:53
  TRACK 03 AUDIO
    INDEX 00 63:19:53
    INDEX 01 63:21:53
REM LEADOUT 63:27:49
